# xmcd CD database file
#
# Track frame offsets:
#	150
#	26901
#	45118
#	60874
#
# Disc length: 1107 seconds
#
# Revision: 0
# Processed by: cddbd v1.5.1PL0 Copyright (c) Steve Scherf et al.
# Submitted via: CDex 1.51
#
DISCID=23045104
DTITLE=江頭つとむ - ALL OF ME
DYEAR=1900
DGENRE=Pop
TTITLE0=Scenes
TTITLE1=Memories
TTITLE2=SHITAGOKORO
TTITLE3=夢想家(dreamer)
EXTD=
EXTT0=
EXTT1=
EXTT2=
EXTT3=
PLAYORDER=
